<svg xmlns="http://www.w3.org/2000/svg" xmlns:xlink="http://www.w3.org/1999/xlink" id="svg126" version="1.1" viewBox="0 0 500 500" height="16" width="16"><defs id="defs3"><path d="M370.298 273.555s-36.548 32.247-85.994 68.795c-8.6 55.896-38.212 73.782-64.495 74.17-73.096 1.074-84.92-61.272-84.92-61.272s15.113.518 36.547 4.3c18.273 3.225 11.824-4.3 21.5-24.723s38.696-29.023 38.696-29.023l42.997-82.77 134.365-177.36-376.223-2.15v413.844h437.492l-1.074-338.6-98.892 154.79z" id="a"/></defs><clipPath id="b"><use id="use5" xlink:href="#a"/></clipPath><linearGradient y2="167.744" x2="447.137" y1="96.618" x1="376.011" id="o"><stop id="stop96" stop-color="#b3b3b3" offset="0"/><stop id="stop98" stop-color="#999" offset="1"/></linearGradient><linearGradient y2="304.433" x2="303.12" y1="267.367" x1="266.054" id="p"><stop id="stop103" stop-color="#b3b3b3" offset="0"/><stop id="stop105" stop-color="#999" offset="1"/></linearGradient><linearGradient y2="363.41" x2="262.722" y1="363.41" x1="156.355" id="q"><stop id="stop110" stop-color="#999" offset="0"/><stop id="stop112" stop-color="#666" offset="1"/></linearGradient><linearGradient gradientUnits="userSpaceOnUse" gradientTransform="matrix(.99548 0 0 1.0045405 0 2.3409952)" y2="110883.19" x2="112606.4" y1="67516.885" x1="69240.103" id="r"><stop id="stop117" stop-color="#74b739" offset="0"/><stop id="stop119" stop-color="#56991c" offset="1"/></linearGradient><g id="g4" transform="matrix(.8134473 0 0 .8134473 62.5 29.819832)"><path id="path2" d="M365.257 67.393H95.744C42.866 67.393 0 110.259 0 163.137v134.728c0 52.878 42.866 95.744 95.744 95.744h269.513c52.878 0 95.744-42.866 95.744-95.744V163.137c0-52.878-42.866-95.744-95.744-95.744zm-64.751 169.663-126.06 60.123c-3.359 1.602-7.239-.847-7.239-4.568V168.607c0-3.774 3.982-6.22 7.348-4.514l126.06 63.881c3.748 1.899 3.683 7.274-.109 9.082z" style="fill:#f61c0d"/></g><path style="fill:url(#r)" id="path122" d="M342.896 490.001c-8.345 0-16.155-3.333-21.992-9.384l-95.064-98.526c-14.963-15.51-16.375-20.375-13.975-26.026 1.613-3.798 5.343-6.252 9.5-6.252h53.225c.25-2.82.45-6.628.45-11.31v-82.938c0-17.264 14.044-31.31 31.308-31.31h73.096c17.264 0 31.31 14.046 31.31 31.31v82.94c0 4.707.235 8.523.525 11.308h52.435c4.228 0 8.016 2.485 9.65 6.332 2.354 5.547.928 11.083-13.413 25.946l-95.063 98.526c-5.838 6.05-13.65 9.383-21.994 9.383z"/><path style="fill:#fff" id="path124" d="M379.443 234.256c11.72 0 21.31 9.59 21.31 21.31v82.938c0 11.72 1.392 21.31 3.095 21.31h59.866c2.11 0-2.82 6.9-10.96 15.334l-95.062 98.526c-4.07 4.217-9.433 6.326-14.796 6.326-5.363 0-10.727-2.11-14.796-6.327l-95.063-98.526c-8.138-8.435-13.39-15.335-11.67-15.335h60.989c1.475 0 2.68-9.59 2.68-21.31v-82.938c0-11.72 9.59-21.31 21.31-21.31h73.095m0-20h-73.096c-22.777 0-41.31 18.532-41.31 41.31v82.94c0 .444 0 .88-.005 1.308h-43.667c-8.178 0-15.52 4.845-18.705 12.343-4.973 11.708 2.523 21.233 5.724 25.3 2.64 3.355 6.188 7.36 10.26 11.58l95.063 98.525c7.74 8.02 18.104 12.44 29.188 12.44s21.45-4.42 29.19-12.44l95.06-98.526c4.085-4.232 7.614-8.29 10.21-11.735 2.772-3.683 10.14-13.464 5.21-25.065-3.204-7.546-10.604-12.422-18.853-12.422h-42.953a111.95 111.95 0 0 1-.007-1.31v-82.938c.002-22.78-18.53-41.31-41.307-41.31z"/></svg>